<?xml version="1.0" encoding="utf-8"?>
<!-- Generator: Adobe Illustrator 24.0.1, SVG Export Plug-In . SVG Version: 6.00 Build 0)  -->
<svg version="1.1" id="Layer_1" xmlns="http://www.w3.org/2000/svg" xmlns:xlink="http://www.w3.org/1999/xlink" x="0px" y="0px"
	 viewBox="0 0 101.99 101.99" style="enable-background:new 0 0 101.99 101.99;" xml:space="preserve">
<style type="text/css">
	.st0{fill:#5E3CC4;}
	.st1{fill:#FFFFFF;}
	.st2{fill:#FAAB37;}
</style>
<g>
	<path class="st0" d="M96.31,101.99H5.69c-3.14,0-5.69-2.55-5.69-5.69V5.69C0,2.55,2.55,0,5.69,0h90.62c3.14,0,5.69,2.55,5.69,5.69
		v90.62C101.99,99.45,99.45,101.99,96.31,101.99z"/>
	<g>
		<g>
			<path class="st1" d="M42.7,50.38l7.98-22.26l8.12,22.24c4.6-0.63,8.7-1.66,12.27-3.05l-8.44-20.84
				c-0.83-2.18-1.51-3.92-2.05-5.22c-0.54-1.3-1.2-2.52-1.98-3.66c-0.78-1.13-1.81-2.06-3.08-2.78c-1.27-0.72-2.86-1.08-4.76-1.08
				c-1.87,0-3.44,0.36-4.71,1.08c-1.27,0.72-2.3,1.66-3.08,2.83c-0.78,1.17-1.52,2.63-2.21,4.39c-0.69,1.76-1.28,3.27-1.77,4.53
				l-7.97,20.23C34.11,48.18,38.08,49.59,42.7,50.38z"/>
			<path class="st1" d="M77.78,63.85l-0.53-1.31c-3.39,1.33-7.61,2.61-12.75,3.54l0.35,0.96l2.9,7.61c0.43,1.04,0.94,2.25,1.54,3.61
				c0.6,1.36,1.16,2.38,1.68,3.04c0.52,0.66,1.16,1.18,1.93,1.56c0.77,0.38,1.69,0.57,2.76,0.57c1.84,0,3.41-0.65,4.71-1.95
				c1.3-1.3,1.95-2.74,1.95-4.3c0-1.5-0.69-3.91-2.07-7.22L77.78,63.85z"/>
			<path class="st1" d="M25.01,62.09l-3.25,8.25c-0.71,1.75-1.21,3.11-1.52,4.09c-0.31,0.98-0.46,1.93-0.46,2.85
				c0,1.59,0.66,3.02,1.98,4.28c1.32,1.26,2.84,1.89,4.55,1.89c2.02,0,3.48-0.59,4.37-1.77c0.89-1.18,1.96-3.46,3.22-6.83l3.22-8.65
				l0.07-0.19C33.03,65.11,28.95,63.81,25.01,62.09z"/>
		</g>
		<path class="st2" d="M81.69,44.31c-1.87,1.8-3.95,3.2-6.29,4.36c-4.39,2.18-11.4,4.54-22.07,5.23c-1.05,0.07-2.08,0.1-3.09,0.1
			c-9.29,0-17.01-2.72-22.42-5.45c-2.7-1.37-4.81-2.73-6.21-3.73c-0.7-0.5-1.23-0.91-1.56-1.18c-0.17-0.13-0.29-0.23-0.36-0.29
			c0,0-0.07-0.06-0.06-0.05c-2.16-1.93-5.46-1.74-7.39,0.41c-1.93,2.16-1.74,5.46,0.41,7.39c0.25,0.22,3.95,3.5,10.44,6.79
			c6.48,3.28,15.8,6.58,27.15,6.58c1.23,0,2.48-0.04,3.76-0.12c12.89-0.83,21.73-3.93,27.41-7.01c5.69-3.08,8.2-6.11,8.58-6.61
			c1.77-2.29,1.35-5.57-0.94-7.34c-2.32-1.8-5.29-1.11-7.28,0.83C81.74,44.26,81.71,44.29,81.69,44.31z"/>
	</g>
</g>
</svg>
