<?xml version="1.0" encoding="UTF-8"?>
<!DOCTYPE svg PUBLIC "-//W3C//DTD SVG 1.1//EN" "http://www.w3.org/Graphics/SVG/1.1/DTD/svg11.dtd">
<svg xmlns="http://www.w3.org/2000/svg" version="1.1" width="512px" height="512px" style="shape-rendering:geometricPrecision; text-rendering:geometricPrecision; image-rendering:optimizeQuality; fill-rule:evenodd; clip-rule:evenodd" xmlns:xlink="http://www.w3.org/1999/xlink">
<g><path style="opacity:0.985" fill="#000000" d="M 438.5,511.5 C 434.5,511.5 430.5,511.5 426.5,511.5C 403.868,488.368 381.035,465.368 358,442.5C 349.47,451.364 340.637,459.864 331.5,468C 321.927,470.102 316.427,466.268 315,456.5C 308.802,434.073 302.302,411.739 295.5,389.5C 203.835,388.667 112.168,388.167 20.5,388C 10.5495,385.048 3.54946,378.881 -0.5,369.5C -0.5,252.833 -0.5,136.167 -0.5,19.5C 3.54946,10.1189 10.5495,3.95222 20.5,1C 150.5,0.333333 280.5,0.333333 410.5,1C 421.667,4.16667 428.833,11.3333 432,22.5C 432.667,96.1667 432.667,169.833 432,243.5C 428.345,248.275 423.512,249.775 417.5,248C 415.667,246.833 414.167,245.333 413,243.5C 412.5,198.501 412.333,153.501 412.5,108.5C 281.167,108.5 149.833,108.5 18.5,108.5C 18.3333,191.834 18.5,275.167 19,358.5C 19.8333,364 23,367.167 28.5,368C 115.499,368.5 202.499,368.667 289.5,368.5C 284.041,348.788 278.374,329.121 272.5,309.5C 198.836,308.667 125.169,308.167 51.5,308C 49.6667,306.833 48.1667,305.333 47,303.5C 46.3333,249.5 46.3333,195.5 47,141.5C 48.1667,139.667 49.6667,138.167 51.5,137C 137.5,136.333 223.5,136.333 309.5,137C 311.333,138.167 312.833,139.667 314,141.5C 314.333,186.5 314.667,231.5 315,276.5C 364.21,290.791 413.376,305.291 462.5,320C 466.259,323.743 467.426,328.243 466,333.5C 457.864,342.637 449.364,351.47 440.5,360C 464.028,383.195 487.195,406.695 510,430.5C 511.075,434.858 510.408,438.858 508,442.5C 484.938,465.729 461.772,488.729 438.5,511.5 Z M 28.5,20.5 C 153.167,20.3333 277.834,20.5 402.5,21C 408,21.8333 411.167,25 412,30.5C 412.5,49.8305 412.667,69.1638 412.5,88.5C 281.167,88.5 149.833,88.5 18.5,88.5C 18.3334,69.1638 18.5,49.8305 19,30.5C 20.0143,24.9883 23.1809,21.655 28.5,20.5 Z M 66.5,156.5 C 142.5,156.5 218.5,156.5 294.5,156.5C 294.5,194.5 294.5,232.5 294.5,270.5C 287.704,268.759 280.871,267.093 274,265.5C 267.833,266.333 264.333,269.833 263.5,276C 264.426,280.204 265.426,284.371 266.5,288.5C 199.833,288.5 133.167,288.5 66.5,288.5C 66.5,244.5 66.5,200.5 66.5,156.5 Z M 211.5,196.5 C 227.718,197.719 236.718,206.386 238.5,222.5C 236.788,238.378 227.955,247.045 212,248.5C 211.5,231.17 211.333,213.837 211.5,196.5 Z M 135.5,219.5 C 138.001,225.658 140.334,231.991 142.5,238.5C 138.167,239.833 133.833,239.833 129.5,238.5C 131.908,232.276 133.908,225.943 135.5,219.5 Z M 290.5,292.5 C 339.231,306.017 387.897,319.85 436.5,334C 430,340.5 423.5,347 417,353.5C 414.812,357.16 414.478,360.826 416,364.5C 438.805,388.305 461.972,411.805 485.5,435C 468,452.5 450.5,470 433,487.5C 409.805,463.972 386.305,440.805 362.5,418C 358.688,416.051 355.021,416.385 351.5,419C 345,425.5 338.5,432 332,438.5C 317.85,389.897 304.017,341.231 290.5,292.5 Z"/></g>
<g><path style="opacity:0.893" fill="#000000" d="M 56.5,44.5 C 65.125,42.6337 70.125,45.9671 71.5,54.5C 70.1247,63.1951 65.1247,66.3618 56.5,64C 48.5548,57.5029 48.5548,51.0029 56.5,44.5 Z"/></g>
<g><path style="opacity:0.891" fill="#000000" d="M 101.5,44.5 C 112.988,43.1542 117.822,48.1542 116,59.5C 112.345,64.2745 107.512,65.7745 101.5,64C 93.6491,57.5223 93.6491,51.0223 101.5,44.5 Z"/></g>
<g><path style="opacity:0.893" fill="#000000" d="M 147.5,44.5 C 156.125,42.6337 161.125,45.9671 162.5,54.5C 161.125,63.1951 156.125,66.3618 147.5,64C 139.555,57.5029 139.555,51.0029 147.5,44.5 Z"/></g>
<g><path style="opacity:0.988" fill="#000000" d="M 225.5,44.5 C 275.168,44.3333 324.834,44.5 374.5,45C 379.275,48.6551 380.775,53.4884 379,59.5C 377.833,61.3333 376.333,62.8333 374.5,64C 324.833,64.6667 275.167,64.6667 225.5,64C 217.581,57.5063 217.581,51.0063 225.5,44.5 Z"/></g>
<g><path style="opacity:0.955" fill="#000000" d="M 131.5,176.5 C 137.898,175.053 142.731,177.053 146,182.5C 154,206.5 162,230.5 170,254.5C 171.333,265.498 166.5,269.998 155.5,268C 152.441,266.401 150.441,263.901 149.5,260.5C 140.5,259.167 131.5,259.167 122.5,260.5C 119.878,267.601 114.878,270.101 107.5,268C 102.365,264.945 100.532,260.445 102,254.5C 109.802,230.759 117.802,207.092 126,183.5C 126.967,180.379 128.8,178.046 131.5,176.5 Z M 135.5,219.5 C 133.908,225.943 131.908,232.276 129.5,238.5C 133.833,239.833 138.167,239.833 142.5,238.5C 140.334,231.991 138.001,225.658 135.5,219.5 Z"/></g>
<g><path style="opacity:0.952" fill="#000000" d="M 196.5,176.5 C 216.414,172.763 233.581,177.763 248,191.5C 263.333,212.167 263.333,232.833 248,253.5C 233.582,267.401 216.415,272.235 196.5,268C 194,266.833 192.167,265 191,262.5C 190.333,235.833 190.333,209.167 191,182.5C 192.36,179.977 194.193,177.977 196.5,176.5 Z M 211.5,196.5 C 211.333,213.837 211.5,231.17 212,248.5C 227.955,247.045 236.788,238.378 238.5,222.5C 236.718,206.386 227.718,197.719 211.5,196.5 Z"/></g>
<g><path style="opacity:0.89" fill="#000000" d="M 417.5,268.5 C 429.324,266.824 434.158,271.824 432,283.5C 428.345,288.275 423.512,289.775 417.5,288C 412.725,284.345 411.225,279.512 413,273.5C 414.366,271.638 415.866,269.972 417.5,268.5 Z"/></g>
<g><path style="opacity:0.979" fill="#000000" d="M 53.5,328.5 C 79.1688,328.333 104.835,328.5 130.5,329C 136.025,331.919 137.858,336.419 136,342.5C 134.833,345 133,346.833 130.5,348C 104.833,348.667 79.1667,348.667 53.5,348C 45.5548,341.503 45.5548,335.003 53.5,328.5 Z"/></g>
<g><path style="opacity:0.895" fill="#000000" d="M 161.5,328.5 C 171.069,327.012 175.902,331.012 176,340.5C 173.724,347.751 168.89,350.251 161.5,348C 155.975,345.081 154.142,340.581 156,334.5C 157.36,331.977 159.193,329.977 161.5,328.5 Z"/></g>
</svg>
